<svg width="56" height="72" viewBox="0 0 56 72" fill="none" xmlns="http://www.w3.org/2000/svg">
<path d="M55.9991 13.4158L42.2596 0H27.9698L21.6523 37.7974L27.9698 72H55.9991V13.4158Z" fill="#E4E7EC"/>
<path d="M0 0H27.9729V72H0V0Z" fill="#F0F2F5"/>
<path d="M13.9766 12.0796H27.9651V18.2481H13.9766V12.0796Z" fill="#F7F9FC"/>
<path d="M41.954 24.6953H27.9653L25.8594 28.2605L27.9653 30.864H41.954V24.6953Z" fill="#F7F9FC"/>
<path d="M41.954 43.4829V37.3145H27.9653L25.8594 40.3987L27.9653 43.4829H41.954Z" fill="#F7F9FC"/>
<path d="M41.954 56.0986V49.9299H27.9653L25.8594 53.217L27.9653 56.0986H41.954Z" fill="#F7F9FC"/>
<path d="M13.9766 24.6958H27.9651V30.8643H13.9766V24.6958Z" fill="#F7F9FC"/>
<path d="M13.9766 37.313H27.9651V43.4815H13.9766V37.313Z" fill="#F7F9FC"/>
<path d="M13.9766 49.9304H27.9651V56.0989H13.9766V49.9304Z" fill="#F7F9FC"/>
<path d="M42.2595 0L42.0195 13.381L55.999 13.4158L42.2595 0Z" fill="#98A2B3"/>
</svg>
