<svg width="94" height="23" viewBox="0 0 94 23" fill="none" xmlns="http://www.w3.org/2000/svg">
<path d="M90.9153 22.3335H1.80765C1.80765 22.3335 -1.36994 22.3335 0.700841 19.2631C3.83557 14.586 8.25562 3.31093 19.702 4.11068C32.7979 5.02468 35.597 9.82317 35.597 9.9517C35.597 9.9517 37.5964 -0.737796 48.7357 0.0405306C59.8751 0.811717 62.3886 9.18765 62.3886 9.18765C62.3886 9.18765 66.9658 4.5891 74.8347 6.9098C79.2119 8.20225 83.4891 12.4581 82.6751 16.4639C86.3311 15.0358 86.1383 14.5074 90.0299 15.45C98.413 17.4779 90.9153 22.3407 90.9153 22.3407V22.3335Z" fill="#F9FAFB"/>
</svg>
