<svg width="68" height="17" viewBox="0 0 68 17" fill="none" xmlns="http://www.w3.org/2000/svg">
<path d="M65.7685 16.1562H1.30766C1.30766 16.1562 -0.991018 16.1562 0.506992 13.935C2.77467 10.5516 5.97215 2.39514 14.2525 2.97368C23.7261 3.63487 25.751 7.10613 25.751 7.19911C25.751 7.19911 27.1974 -0.533725 35.2556 0.02932C43.3139 0.587199 45.1322 6.64639 45.1322 6.64639C45.1322 6.64639 48.4433 3.31977 54.1357 4.99858C57.3022 5.93354 60.3964 9.01221 59.8075 11.9101C62.4523 10.877 62.3128 10.4947 65.128 11.1766C71.1924 12.6436 65.7685 16.1613 65.7685 16.1613V16.1562Z" fill="#F9FAFB"/>
</svg>
