<svg width="100" height="52" viewBox="0 0 100 52" fill="none" xmlns="http://www.w3.org/2000/svg">
<path d="M71.3969 17.3333H42.9297L25.3516 0H45.0297L71.3969 17.3333Z" fill="#E4E7EC"/>
<path d="M50 17.333H71.3947L50 3.26831V17.333Z" fill="#98A2B3"/>
<path d="M100 34.6667H51.4648L55.8594 28.8889H45.9488L43.0191 34.6667H20.5078C9.20098 34.6667 0 25.5938 0 14.4444V0H10.5973L16.4566 11.5556H79.4922C90.799 11.5556 100 20.6284 100 31.7778V34.6667Z" fill="#F0F2F5"/>
<path d="M100 34.6668V31.7779C100 20.6285 90.799 11.5557 79.4922 11.5557H50V28.889H55.8594L51.4648 34.6668H100Z" fill="#F0F2F5"/>
<path d="M45.6051 52H27.6836L42.332 23.1111H67.5777L45.6051 52Z" fill="#E4E7EC"/>
<path d="M50 46.2222L67.5781 23.1111H50V46.2222Z" fill="#98A2B3"/>
</svg>
