<svg width="70" height="70" viewBox="0 0 70 70" fill="none" xmlns="http://www.w3.org/2000/svg">
<path d="M59.2581 17.6244H10.7383V2.74709C10.7383 1.22992 11.9682 0 13.4854 0H56.5112C58.0283 0 59.2583 1.22992 59.2583 2.74709V17.6244H59.2581Z" fill="#EFF3F5"/>
<path d="M56.5111 0H51.6523C53.1695 0 54.3994 1.22992 54.3994 2.74709V17.6244H59.2581V2.74709C59.2581 1.22992 58.0282 0 56.5111 0Z" fill="#D0D5DD"/>
<path d="M8.82422 13.0039H61.1727V67.8903H8.82422V13.0039Z" fill="#E4E7EC"/>
<path d="M56.3125 13.0039H61.1712V67.8903H56.3125V13.0039Z" fill="#F0F2F5"/>
<path d="M63.3008 16.2557H6.6927C6.0858 16.2557 5.59375 15.7636 5.59375 15.1567V13.1341C5.59375 12.5272 6.0858 12.0352 6.6927 12.0352H63.3008C63.9077 12.0352 64.3998 12.5272 64.3998 13.1341V15.1567C64.3998 15.7636 63.9079 16.2557 63.3008 16.2557Z" fill="#D0D5DD"/>
<path d="M63.3008 69.9998H6.6927C6.0858 69.9998 5.59375 69.5078 5.59375 68.9009V66.8782C5.59375 66.2713 6.0858 65.7793 6.6927 65.7793H63.3008C63.9077 65.7793 64.3998 66.2713 64.3998 66.8782V68.9009C64.3998 69.5078 63.9079 69.9998 63.3008 69.9998Z" fill="#D0D5DD"/>
<path d="M22.0475 6.56247H20.2976V8.94548C20.2976 9.22685 19.9547 9.36753 19.6117 9.36753C19.2687 9.36753 18.9258 9.22685 18.9258 8.94548V3.35286C18.9258 3.06274 19.2687 2.9397 19.6117 2.9397C19.9547 2.9397 20.2976 3.06274 20.2976 3.35286V5.50714H22.0475V3.35286C22.0475 3.06274 22.3904 2.9397 22.7334 2.9397C23.0764 2.9397 23.4193 3.06274 23.4193 3.35286V8.94534C23.4193 9.22671 23.0764 9.36739 22.7334 9.36739C22.3904 9.36739 22.0475 9.22671 22.0475 8.94534V6.56247Z" fill="#98A2B3"/>
<path d="M26.0586 7.34505V5.01481C26.0586 3.50243 26.9995 2.9397 28.2129 2.9397C29.4263 2.9397 30.376 3.50243 30.376 5.01481V7.34505C30.376 8.85743 29.4264 9.42017 28.2129 9.42017C26.9994 9.42017 26.0586 8.85743 26.0586 7.34505ZM29.0043 5.01481C29.0043 4.40806 28.7053 4.13544 28.2129 4.13544C27.7204 4.13544 27.4303 4.40806 27.4303 5.01481V7.34505C27.4303 7.95181 27.7205 8.22442 28.2129 8.22442C28.7052 8.22442 29.0043 7.95181 29.0043 7.34505V5.01481Z" fill="#98A2B3"/>
<path d="M36.7236 2.9397C37.0139 2.9397 37.1369 3.2562 37.1369 3.54646C37.1369 3.8806 36.9875 4.17071 36.7236 4.17071H35.5102V8.94548C35.5102 9.22685 35.1673 9.36753 34.8243 9.36753C34.4813 9.36753 34.1384 9.22685 34.1384 8.94548V4.17071H32.925C32.6612 4.17071 32.5117 3.8806 32.5117 3.54646C32.5117 3.2562 32.6348 2.9397 32.925 2.9397H36.7236Z" fill="#98A2B3"/>
<path d="M40.8092 5.62157H42.1281C42.3919 5.62157 42.5414 5.87655 42.5414 6.15792C42.5414 6.39526 42.4182 6.67663 42.1281 6.67663H40.8092V8.17151H43.1658C43.4295 8.17151 43.579 8.45288 43.579 8.77827C43.579 9.05964 43.4559 9.36739 43.1658 9.36739H40.0355C39.7365 9.36739 39.4375 9.22671 39.4375 8.94534V3.36175C39.4375 3.08038 39.7365 2.9397 40.0355 2.9397H43.1658C43.4559 2.9397 43.579 3.24745 43.579 3.52882C43.579 3.85407 43.4295 4.13558 43.1658 4.13558H40.8092V5.62157Z" fill="#98A2B3"/>
<path d="M46.5355 9.36753C46.2365 9.36753 45.9375 9.22685 45.9375 8.94548V3.35286C45.9375 3.06274 46.2804 2.9397 46.6234 2.9397C46.9664 2.9397 47.3093 3.06274 47.3093 3.35286V8.17151H49.3142C49.5779 8.17151 49.7098 8.47052 49.7098 8.76952C49.7098 9.06853 49.5779 9.36753 49.3142 9.36753H46.5355Z" fill="#98A2B3"/>
<path d="M23.4863 37.2209H14.2484C13.71 37.2209 13.2734 36.7843 13.2734 36.2459V22.5843C13.2734 22.0459 13.71 21.6094 14.2484 21.6094H23.4863C24.0247 21.6094 24.4613 22.0459 24.4613 22.5843V36.2459C24.4613 36.7843 24.0247 37.2209 23.4863 37.2209Z" fill="#F0F2F5"/>
<path d="M39.6152 37.2209H30.3773C29.8389 37.2209 29.4023 36.7843 29.4023 36.2459V22.5843C29.4023 22.0459 29.8389 21.6094 30.3773 21.6094H39.6152C40.1536 21.6094 40.5902 22.0459 40.5902 22.5843V36.2459C40.5902 36.7843 40.1538 37.2209 39.6152 37.2209Z" fill="#F0F2F5"/>
<path d="M55.748 37.2209H46.5101C45.9717 37.2209 45.5352 36.7843 45.5352 36.2459V22.5843C45.5352 22.0459 45.9717 21.6094 46.5101 21.6094H55.748C56.2864 21.6094 56.723 22.0459 56.723 22.5843V36.2459C56.723 36.7843 56.2864 37.2209 55.748 37.2209Z" fill="#F0F2F5"/>
<path d="M24.4613 28.3898H19.8928V21.6094H17.842V28.3898H13.2734V30.4406H17.842V37.2209H19.8928V30.4406H24.4613V28.3898Z" fill="#98A2B3"/>
<path d="M40.59 28.3898H36.0216V21.6094H33.9708V28.3898H29.4023V30.4406H33.9708V37.2209H36.0216V30.4406H40.59V28.3898Z" fill="#98A2B3"/>
<path d="M56.723 28.3898H52.1544V21.6094H50.1036V28.3898H45.5352V30.4406H50.1036V37.2209H52.1544V30.4406H56.723V28.3898Z" fill="#98A2B3"/>
<path d="M23.4863 58.6388H14.2484C13.71 58.6388 13.2734 58.2023 13.2734 57.6639V44.0023C13.2734 43.4639 13.71 43.0273 14.2484 43.0273H23.4863C24.0247 43.0273 24.4613 43.4639 24.4613 44.0023V57.6639C24.4613 58.2024 24.0247 58.6388 23.4863 58.6388Z" fill="#F0F2F5"/>
<path d="M40.5902 65.7794H29.4023V44.3453C29.4023 43.6174 29.9924 43.0273 30.7203 43.0273H39.2722C40.0001 43.0273 40.5902 43.6174 40.5902 44.3453V65.7794Z" fill="#EFF3F5"/>
<path d="M39.2751 43.0273H35.7344V65.7794H40.5931V44.3453C40.5931 43.6174 40.003 43.0273 39.2751 43.0273Z" fill="#D0D5DD"/>
<path d="M55.748 58.6388H46.5101C45.9717 58.6388 45.5352 58.2023 45.5352 57.6639V44.0023C45.5352 43.4639 45.9717 43.0273 46.5101 43.0273H55.748C56.2864 43.0273 56.723 43.4639 56.723 44.0023V57.6639C56.723 58.2024 56.2864 58.6388 55.748 58.6388Z" fill="#F0F2F5"/>
<path d="M24.4613 49.8078H19.8928V43.0273H17.842V49.8078H13.2734V51.8586H17.842V58.6388H19.8928V51.8586H24.4613V49.8078Z" fill="#98A2B3"/>
<path d="M56.723 49.8078H52.1544V43.0273H50.1036V49.8078H45.5352V51.8586H50.1036V58.6388H52.1544V51.8586H56.723V49.8078Z" fill="#98A2B3"/>
</svg>
