<svg width="95" height="123" viewBox="0 0 95 123" fill="none" xmlns="http://www.w3.org/2000/svg">
<path d="M51.9872 46.6799C51.9872 46.6799 29.8559 80.8797 24.0714 127.431L6.06006 125.733C6.06006 125.733 21.7242 71.2582 46.4523 43.7585C52.187 42.7015 51.9955 46.6799 51.9955 46.6799H51.9872Z" fill="#FEC035"/>
<path d="M46.924 45.3071C52.617 36.984 53.7906 25.9142 49.0131 16.2261C44.244 6.53791 34.7556 0.711704 24.6929 0.154053L27.9389 6.74599L34.123 9.06815L30.0696 11.0657L32.9245 16.8753L39.1086 19.1974L35.0552 21.195L46.9323 45.3071H46.924Z" fill="#108C63"/>
<path d="M24.6929 0.154053C24.6929 0.154053 53.6241 6.62946 46.8325 45.124" stroke="black" stroke-width="0.307957" stroke-miterlimit="10" stroke-linecap="round"/>
<path d="M51.4003 34.7371L47.6715 38.5741L41.0796 33.447" stroke="black" stroke-width="0.307957" stroke-miterlimit="10" stroke-linecap="round"/>
<path d="M51.2723 22.5935L47.4187 27.4126L36.6069 23.6089" stroke="black" stroke-width="0.307957" stroke-miterlimit="10" stroke-linecap="round"/>
<path d="M44.3621 9.4353L42.8806 14.1046L31.1616 13.2972" stroke="black" stroke-width="0.307957" stroke-miterlimit="10" stroke-linecap="round"/>
<path d="M47.3793 45.706C39.1144 39.9298 28.0612 38.648 18.3232 43.3256C8.58508 48.0032 2.66732 57.425 2.00146 67.4877L8.62669 64.3083L11.0071 58.1492L12.9631 62.2275L18.7976 59.4309L21.178 53.2718L23.1339 57.3501L47.371 45.7227L47.3793 45.706Z" fill="#108C63"/>
<path d="M1.99365 67.488C1.99365 67.488 8.76038 38.6233 47.1884 45.7979" stroke="black" stroke-width="0.307957" stroke-miterlimit="10" stroke-linecap="round"/>
<path d="M36.849 41.1208L40.6443 44.8829L35.4507 51.4249" stroke="black" stroke-width="0.307957" stroke-miterlimit="10" stroke-linecap="round"/>
<path d="M24.7085 41.1287L29.486 45.0322L25.5658 55.8024" stroke="black" stroke-width="0.307957" stroke-miterlimit="10" stroke-linecap="round"/>
<path d="M11.4741 47.9041L16.1268 49.4355L15.2112 61.1462" stroke="black" stroke-width="0.307957" stroke-miterlimit="10" stroke-linecap="round"/>
<path d="M47.2241 45.6562C55.9551 40.604 67.0748 40.2794 76.3801 45.7727C85.6854 51.266 90.7708 61.1622 90.5711 71.2416L84.2372 67.5045L82.3894 61.1622L80.0922 65.0574L74.5157 61.7698L72.668 55.4276L70.3708 59.3228L47.2241 45.6562Z" fill="#108C63"/>
<path d="M90.5716 71.2502C90.5716 71.2502 86.3018 41.9111 47.4077 45.7647" stroke="black" stroke-width="0.307957" stroke-miterlimit="10" stroke-linecap="round"/>
<path d="M58.1009 41.9939L53.9976 45.4147L58.6086 52.3812" stroke="black" stroke-width="0.307957" stroke-miterlimit="10" stroke-linecap="round"/>
<path d="M70.2046 43.0427L65.1108 46.5218L68.0822 57.5916" stroke="black" stroke-width="0.307957" stroke-miterlimit="10" stroke-linecap="round"/>
<path d="M82.8036 50.9255L78.0344 52.0492L77.9429 63.7931" stroke="black" stroke-width="0.307957" stroke-miterlimit="10" stroke-linecap="round"/>
<path d="M47.1694 45.6151C48.5677 35.6273 55.1597 26.6633 65.214 22.7098C75.2684 18.7646 86.205 20.8454 94.0205 27.2126L87.1788 29.901L81.0447 27.454L82.701 31.6655L76.675 34.0292L70.5408 31.5822L72.1972 35.7938L47.1778 45.6151H47.1694Z" fill="#0BB380"/>
<path d="M94.0205 27.2121C94.0205 27.2121 78.9472 20.2872 65.006 27.4951C51.0647 34.7029 50.3239 40.1712 47.1694 45.6063" stroke="black" stroke-width="0.307957" stroke-miterlimit="10" stroke-linecap="round"/>
<path d="M59.8827 25.7634L56.6616 32.7049L70.0536 36.6335" stroke="black" stroke-width="0.307957" stroke-miterlimit="10" stroke-linecap="round"/>
<path d="M73.1638 21.0115L68.5444 25.9721L81.6784 32.0646" stroke="black" stroke-width="0.307957" stroke-miterlimit="10" stroke-linecap="round"/>
<path d="M47.0048 45.6151C45.6065 35.6273 39.0146 26.6633 28.9602 22.7098C18.9059 18.7646 7.96925 20.8454 0.153809 27.2126L6.99544 29.901L13.1296 27.454L11.4733 31.6655L17.4993 34.0292L23.6334 31.5822L21.9771 35.7938L46.9965 45.6151H47.0048Z" fill="#0BB380"/>
<path d="M0.153809 27.2121C0.153809 27.2121 15.227 20.2872 29.1683 27.4951C43.1096 34.7029 43.8503 40.1712 47.0048 45.6063" stroke="black" stroke-width="0.307957" stroke-miterlimit="10" stroke-linecap="round"/>
<path d="M34.2973 25.7634L37.5184 32.7049L24.1265 36.6335" stroke="black" stroke-width="0.307957" stroke-miterlimit="10" stroke-linecap="round"/>
<path d="M21.0121 21.0115L25.6315 25.9721L12.4976 32.0646" stroke="black" stroke-width="0.307957" stroke-miterlimit="10" stroke-linecap="round"/>
<path d="M47.2632 45.6155C57.2093 47.2884 65.9903 54.1301 69.6525 64.2926C73.323 74.4552 70.9342 85.3252 64.3506 92.9659L61.8537 86.0494L64.4755 79.9818L60.2223 81.5132L58.025 75.429L60.6468 69.3614L56.3937 70.8929L47.2715 45.6072L47.2632 45.6155Z" fill="#0BB380"/>
<path d="M64.3589 92.9571C64.3589 92.9571 71.7 78.0836 64.875 63.9426C58.05 49.8015 52.6066 48.911 47.2632 45.615" stroke="black" stroke-width="0.307957" stroke-miterlimit="10" stroke-linecap="round"/>
<path d="M66.7555 58.8737L59.9056 55.4529L55.6108 68.7366" stroke="black" stroke-width="0.307957" stroke-miterlimit="10" stroke-linecap="round"/>
<path d="M71.1348 72.2835L66.3157 67.531L59.8569 80.4818" stroke="black" stroke-width="0.307957" stroke-miterlimit="10" stroke-linecap="round"/>
<path d="M45.417 58.4834C44.31 60.6807 43.1115 63.1443 41.863 65.8743C39.4576 63.8185 36.2032 62.3536 33.6147 61.4214C34.9964 59.1409 36.428 56.9186 37.9012 54.7712C41.4052 55.3788 43.8356 56.9769 45.417 58.4917V58.4834Z" fill="#FE9435"/>
<path d="M37.0923 77.0948C35.7689 80.4574 34.4539 84.0447 33.1805 87.8484C29.9511 85.7842 25.6314 84.1862 22.1772 83.1125C23.8419 79.5002 25.6314 75.8547 27.5207 72.2341C31.4576 73.3078 34.87 75.4469 37.0923 77.0948Z" fill="#FE9435"/>
<path d="M29.0967 101.53C28.0147 105.641 27.0242 109.92 26.1586 114.339C20.2409 112.583 14.8724 111.518 10.9272 110.885C12.4088 106.715 14.2066 101.896 16.304 96.7107C21.1814 97.5014 25.7591 99.6238 29.0967 101.53Z" fill="#FE9435"/>
</svg>
